<mxfile host="app.diagrams.net" modified="2023-05-26T15:06:02.990Z" agent="Mozilla/5.0 (Windows NT 10.0; Win64; x64) AppleWebKit/537.36 (KHTML, like Gecko) Chrome/111.0.0.0 Safari/537.36" etag="338EvWX5fVzw7I20DsBl" version="21.3.4" type="device">
  <diagram name="Page-1" id="ux58GIc_C3kHTVolcPtJ">
    <mxGraphModel dx="1006" dy="485" grid="1" gridSize="10" guides="1" tooltips="1" connect="1" arrows="1" fold="1" page="1" pageScale="1" pageWidth="827" pageHeight="1169" math="0" shadow="0">
      <root>
        <mxCell id="0" />
        <mxCell id="1" parent="0" />
        <mxCell id="8yZegWZCYRQNalD7h6CF-3" value="" style="edgeStyle=orthogonalEdgeStyle;rounded=0;orthogonalLoop=1;jettySize=auto;html=1;" edge="1" parent="1" source="8yZegWZCYRQNalD7h6CF-1" target="8yZegWZCYRQNalD7h6CF-2">
          <mxGeometry relative="1" as="geometry" />
        </mxCell>
        <mxCell id="8yZegWZCYRQNalD7h6CF-1" value="Thùng rác sẵn sàng hoạt động" style="rounded=1;whiteSpace=wrap;html=1;" vertex="1" parent="1">
          <mxGeometry x="120" y="220" width="140" height="70" as="geometry" />
        </mxCell>
        <mxCell id="8yZegWZCYRQNalD7h6CF-5" value="" style="edgeStyle=orthogonalEdgeStyle;rounded=0;orthogonalLoop=1;jettySize=auto;html=1;" edge="1" parent="1" source="8yZegWZCYRQNalD7h6CF-2" target="8yZegWZCYRQNalD7h6CF-4">
          <mxGeometry relative="1" as="geometry" />
        </mxCell>
        <mxCell id="8yZegWZCYRQNalD7h6CF-2" value="Cảm biến siêu âm đo khoảng cách giữa thùng rác với người" style="rounded=1;whiteSpace=wrap;html=1;" vertex="1" parent="1">
          <mxGeometry x="310" y="220" width="140" height="70" as="geometry" />
        </mxCell>
        <mxCell id="8yZegWZCYRQNalD7h6CF-4" value="Đóng mở thùng dựa trên khoảng cách đo được" style="rounded=1;whiteSpace=wrap;html=1;" vertex="1" parent="1">
          <mxGeometry x="510" y="220" width="140" height="70" as="geometry" />
        </mxCell>
      </root>
    </mxGraphModel>
  </diagram>
</mxfile>
